<?xml version="1.0" encoding="UTF-8"?>
<!DOCTYPE svg PUBLIC "-//W3C//DTD SVG 1.1//EN" "http://www.w3.org/Graphics/SVG/1.1/DTD/svg11.dtd">
<svg version="1.2" width="190mm" height="190mm" viewBox="0 0 19000 19000" preserveAspectRatio="xMidYMid" fill-rule="evenodd" stroke-width="28.222" stroke-linejoin="round" xmlns="http://www.w3.org/2000/svg" xmlns:ooo="http://xml.openoffice.org/svg/export" xmlns:xlink="http://www.w3.org/1999/xlink" xmlns:presentation="http://sun.com/xmlns/staroffice/presentation" xmlns:smil="http://www.w3.org/2001/SMIL20/" xmlns:anim="urn:oasis:names:tc:opendocument:xmlns:animation:1.0" xml:space="preserve">
 <defs class="ClipPathGroup">
  <clipPath id="presentation_clip_path" clipPathUnits="userSpaceOnUse">
   <rect x="0" y="0" width="19000" height="19000"/>
  </clipPath>
  <clipPath id="presentation_clip_path_shrink" clipPathUnits="userSpaceOnUse">
   <rect x="19" y="19" width="18962" height="18962"/>
  </clipPath>
 </defs>
 <defs class="TextShapeIndex">
  <g ooo:slide="id1" ooo:id-list="id3 id4 id5 id6 id7 id8 id9 id10 id11 id12 id13 id14 id15 id16 id17 id18 id19 id20 id21 id22 id23 id24 id25 id26 id27 id28 id29 id30 id31 id32 id33 id34 id35 id36 id37 id38 id39 id40 id41 id42 id43 id44 id45"/>
 </defs>
 <defs class="EmbeddedBulletChars">
  <g id="bullet-char-template-57356" transform="scale(0.00048828125,-0.00048828125)">
   <path d="M 580,1141 L 1163,571 580,0 -4,571 580,1141 Z"/>
  </g>
  <g id="bullet-char-template-57354" transform="scale(0.00048828125,-0.00048828125)">
   <path d="M 8,1128 L 1137,1128 1137,0 8,0 8,1128 Z"/>
  </g>
  <g id="bullet-char-template-10146" transform="scale(0.00048828125,-0.00048828125)">
   <path d="M 174,0 L 602,739 174,1481 1456,739 174,0 Z M 1358,739 L 309,1346 659,739 1358,739 Z"/>
  </g>
  <g id="bullet-char-template-10132" transform="scale(0.00048828125,-0.00048828125)">
   <path d="M 2015,739 L 1276,0 717,0 1260,543 174,543 174,936 1260,936 717,1481 1274,1481 2015,739 Z"/>
  </g>
  <g id="bullet-char-template-10007" transform="scale(0.00048828125,-0.00048828125)">
   <path d="M 0,-2 C -7,14 -16,27 -25,37 L 356,567 C 262,823 215,952 215,954 215,979 228,992 255,992 264,992 276,990 289,987 310,991 331,999 354,1012 L 381,999 492,748 772,1049 836,1024 860,1049 C 881,1039 901,1025 922,1006 886,937 835,863 770,784 769,783 710,716 594,584 L 774,223 C 774,196 753,168 711,139 L 727,119 C 717,90 699,76 672,76 641,76 570,178 457,381 L 164,-76 C 142,-110 111,-127 72,-127 30,-127 9,-110 8,-76 1,-67 -2,-52 -2,-32 -2,-23 -1,-13 0,-2 Z"/>
  </g>
  <g id="bullet-char-template-10004" transform="scale(0.00048828125,-0.00048828125)">
   <path d="M 285,-33 C 182,-33 111,30 74,156 52,228 41,333 41,471 41,549 55,616 82,672 116,743 169,778 240,778 293,778 328,747 346,684 L 369,508 C 377,444 397,411 428,410 L 1163,1116 C 1174,1127 1196,1133 1229,1133 1271,1133 1292,1118 1292,1087 L 1292,965 C 1292,929 1282,901 1262,881 L 442,47 C 390,-6 338,-33 285,-33 Z"/>
  </g>
  <g id="bullet-char-template-9679" transform="scale(0.00048828125,-0.00048828125)">
   <path d="M 813,0 C 632,0 489,54 383,161 276,268 223,411 223,592 223,773 276,916 383,1023 489,1130 632,1184 813,1184 992,1184 1136,1130 1245,1023 1353,916 1407,772 1407,592 1407,412 1353,268 1245,161 1136,54 992,0 813,0 Z"/>
  </g>
  <g id="bullet-char-template-8226" transform="scale(0.00048828125,-0.00048828125)">
   <path d="M 346,457 C 273,457 209,483 155,535 101,586 74,649 74,723 74,796 101,859 155,911 209,963 273,989 346,989 419,989 480,963 531,910 582,859 608,796 608,723 608,648 583,586 532,535 482,483 420,457 346,457 Z"/>
  </g>
  <g id="bullet-char-template-8211" transform="scale(0.00048828125,-0.00048828125)">
   <path d="M -4,459 L 1135,459 1135,606 -4,606 -4,459 Z"/>
  </g>
  <g id="bullet-char-template-61548" transform="scale(0.00048828125,-0.00048828125)">
   <path d="M 173,740 C 173,903 231,1043 346,1159 462,1274 601,1332 765,1332 928,1332 1067,1274 1183,1159 1299,1043 1357,903 1357,740 1357,577 1299,437 1183,322 1067,206 928,148 765,148 601,148 462,206 346,322 231,437 173,577 173,740 Z"/>
  </g>
 </defs>
 <g>
  <g id="id2" class="Master_Slide">
   <g id="bg-id2" class="Background"/>
   <g id="bo-id2" class="BackgroundObjects"/>
  </g>
 </g>
 <g class="SlideGroup">
  <g>
   <g id="container-id1">
    <g id="id1" class="Slide" clip-path="url(#presentation_clip_path)">
     <g class="Page">
      <g class="Group">
       <g class="com.sun.star.drawing.ClosedBezierShape">
        <g id="id3">
         <rect class="BoundingBox" stroke="none" fill="none" x="0" y="0" width="19001" height="19001"/>
         <path fill="rgb(255,255,255)" stroke="none" d="M 19000,17154 C 19000,18171 18171,19000 17154,19000 L 1861,19000 C 829,19000 0,18171 0,17154 L 0,1846 C 0,829 829,0 1861,0 L 17154,0 C 18171,0 19000,829 19000,1846 L 19000,17154 Z"/>
        </g>
       </g>
       <g class="Group">
        <g class="com.sun.star.drawing.ClosedBezierShape">
         <g id="id4">
          <rect class="BoundingBox" stroke="none" fill="none" x="16015" y="2340" width="1487" height="1491"/>
          <path fill="rgb(201,12,15)" stroke="none" d="M 17500,3084 C 17500,3496 17168,3830 16758,3830 16347,3830 16015,3496 16015,3084 16015,2673 16347,2340 16758,2340 17168,2340 17500,2673 17500,3084 Z"/>
         </g>
        </g>
        <g class="com.sun.star.drawing.ClosedBezierShape">
         <g id="id5">
          <rect class="BoundingBox" stroke="none" fill="none" x="16093" y="4020" width="1351" height="1346"/>
          <path fill="rgb(53,152,48)" stroke="none" d="M 17443,5233 C 17443,5306 17385,5365 17312,5365 L 16224,5365 C 16152,5365 16093,5306 16093,5233 L 16093,4151 C 16093,4079 16152,4020 16224,4020 L 17312,4020 C 17385,4020 17443,4079 17443,4151 L 17443,5233 Z"/>
         </g>
        </g>
        <g class="com.sun.star.drawing.ClosedBezierShape">
         <g id="id6">
          <rect class="BoundingBox" stroke="none" fill="none" x="16093" y="5634" width="1351" height="1346"/>
          <path fill="rgb(53,152,48)" stroke="none" d="M 17443,6848 C 17443,6920 17385,6979 17312,6979 L 16224,6979 C 16152,6979 16093,6920 16093,6848 L 16093,5765 C 16093,5692 16152,5634 16224,5634 L 17312,5634 C 17385,5634 17443,5692 17443,5765 L 17443,6848 Z"/>
         </g>
        </g>
        <g class="com.sun.star.drawing.ClosedBezierShape">
         <g id="id7">
          <rect class="BoundingBox" stroke="none" fill="none" x="16093" y="7246" width="1351" height="1348"/>
          <path fill="rgb(53,152,48)" stroke="none" d="M 17443,8462 C 17443,8534 17385,8593 17312,8593 L 16224,8593 C 16152,8593 16093,8534 16093,8462 L 16093,7378 C 16093,7306 16152,7247 16224,7247 L 17312,7247 C 17385,7247 17443,7306 17443,7378 L 17443,8462 Z"/>
         </g>
        </g>
        <g class="com.sun.star.drawing.ClosedBezierShape">
         <g id="id8">
          <rect class="BoundingBox" stroke="none" fill="none" x="12842" y="2408" width="1353" height="1348"/>
          <path fill="rgb(53,152,48)" stroke="none" d="M 14194,3624 C 14194,3696 14135,3755 14063,3755 L 12975,3755 C 12902,3755 12843,3696 12843,3624 L 12843,2540 C 12843,2468 12902,2409 12975,2409 L 14063,2409 C 14135,2409 14194,2468 14194,2540 L 14194,3624 Z"/>
         </g>
        </g>
        <g class="com.sun.star.drawing.ClosedBezierShape">
         <g id="id9">
          <rect class="BoundingBox" stroke="none" fill="none" x="11222" y="2408" width="1353" height="1348"/>
          <path fill="rgb(53,152,48)" stroke="none" d="M 12574,3624 C 12574,3696 12515,3755 12443,3755 L 11355,3755 C 11282,3755 11223,3696 11223,3624 L 11223,2540 C 11223,2468 11282,2409 11355,2409 L 12443,2409 C 12515,2409 12574,2468 12574,2540 L 12574,3624 Z"/>
         </g>
        </g>
        <g class="com.sun.star.drawing.ClosedBezierShape">
         <g id="id10">
          <rect class="BoundingBox" stroke="none" fill="none" x="11234" y="5636" width="1352" height="1346"/>
          <path fill="rgb(53,152,48)" stroke="none" d="M 12585,6850 C 12585,6922 12526,6981 12454,6981 L 11366,6981 C 11293,6981 11235,6922 11235,6850 L 11235,5767 C 11235,5694 11293,5636 11366,5636 L 12454,5636 C 12526,5636 12585,5694 12585,5767 L 12585,6850 Z"/>
         </g>
        </g>
        <g class="com.sun.star.drawing.ClosedBezierShape">
         <g id="id11">
          <rect class="BoundingBox" stroke="none" fill="none" x="12856" y="4024" width="1352" height="1346"/>
          <path fill="rgb(53,152,48)" stroke="none" d="M 14207,5237 C 14207,5310 14149,5369 14076,5369 L 12988,5369 C 12916,5369 12857,5310 12857,5237 L 12857,4155 C 12857,4083 12916,4024 12988,4024 L 14076,4024 C 14149,4024 14207,4083 14207,4155 L 14207,5237 Z"/>
         </g>
        </g>
        <g class="com.sun.star.drawing.ClosedBezierShape">
         <g id="id12">
          <rect class="BoundingBox" stroke="none" fill="none" x="12856" y="5635" width="1352" height="1346"/>
          <path fill="rgb(53,152,48)" stroke="none" d="M 14207,6849 C 14207,6921 14149,6980 14076,6980 L 12988,6980 C 12916,6980 12857,6921 12857,6849 L 12857,5766 C 12857,5693 12916,5635 12988,5635 L 14076,5635 C 14149,5635 14207,5693 14207,5766 L 14207,6849 Z"/>
         </g>
        </g>
        <g class="com.sun.star.drawing.ClosedBezierShape">
         <g id="id13">
          <rect class="BoundingBox" stroke="none" fill="none" x="12856" y="7249" width="1352" height="1348"/>
          <path fill="rgb(53,152,48)" stroke="none" d="M 14207,8465 C 14207,8537 14149,8596 14076,8596 L 12988,8596 C 12916,8596 12857,8537 12857,8465 L 12857,7381 C 12857,7309 12916,7250 12988,7250 L 14076,7250 C 14149,7250 14207,7309 14207,7381 L 14207,8465 Z"/>
         </g>
        </g>
        <g class="com.sun.star.drawing.ClosedBezierShape">
         <g id="id14">
          <rect class="BoundingBox" stroke="none" fill="none" x="9603" y="2409" width="1352" height="1348"/>
          <path fill="rgb(53,152,48)" stroke="none" d="M 10954,3625 C 10954,3697 10895,3756 10823,3756 L 9735,3756 C 9662,3756 9603,3697 9603,3625 L 9603,2541 C 9603,2469 9662,2410 9735,2410 L 10823,2410 C 10895,2410 10954,2469 10954,2541 L 10954,3625 Z"/>
         </g>
        </g>
        <g class="com.sun.star.drawing.ClosedBezierShape">
         <g id="id15">
          <rect class="BoundingBox" stroke="none" fill="none" x="9616" y="4024" width="1351" height="1347"/>
          <path fill="rgb(53,152,48)" stroke="none" d="M 10966,5238 C 10966,5311 10908,5370 10835,5370 L 9747,5370 C 9675,5370 9616,5311 9616,5238 L 9616,4156 C 9616,4084 9675,4025 9747,4025 L 10835,4025 C 10908,4025 10966,4084 10966,4156 L 10966,5238 Z"/>
         </g>
        </g>
        <g class="com.sun.star.drawing.ClosedBezierShape">
         <g id="id16">
          <rect class="BoundingBox" stroke="none" fill="none" x="9616" y="5636" width="1351" height="1346"/>
          <path fill="rgb(53,152,48)" stroke="none" d="M 10966,6850 C 10966,6922 10908,6981 10835,6981 L 9747,6981 C 9675,6981 9616,6922 9616,6850 L 9616,5767 C 9616,5694 9675,5636 9747,5636 L 10835,5636 C 10908,5636 10966,5694 10966,5767 L 10966,6850 Z"/>
         </g>
        </g>
        <g class="com.sun.star.drawing.ClosedBezierShape">
         <g id="id17">
          <rect class="BoundingBox" stroke="none" fill="none" x="9616" y="7250" width="1351" height="1348"/>
          <path fill="rgb(53,152,48)" stroke="none" d="M 10966,8466 C 10966,8538 10908,8597 10835,8597 L 9747,8597 C 9675,8597 9616,8538 9616,8466 L 9616,7382 C 9616,7310 9675,7251 9747,7251 L 10835,7251 C 10908,7251 10966,7310 10966,7382 L 10966,8466 Z"/>
         </g>
        </g>
        <g class="com.sun.star.drawing.ClosedBezierShape">
         <g id="id18">
          <rect class="BoundingBox" stroke="none" fill="none" x="6360" y="2408" width="1352" height="1348"/>
          <path fill="rgb(53,152,48)" stroke="none" d="M 7711,3624 C 7711,3696 7652,3755 7580,3755 L 6492,3755 C 6419,3755 6360,3696 6360,3624 L 6360,2540 C 6360,2468 6419,2409 6492,2409 L 7580,2409 C 7652,2409 7711,2468 7711,2540 L 7711,3624 Z"/>
         </g>
        </g>
        <g class="com.sun.star.drawing.ClosedBezierShape">
         <g id="id19">
          <rect class="BoundingBox" stroke="none" fill="none" x="4752" y="5636" width="1351" height="1346"/>
          <path fill="rgb(53,152,48)" stroke="none" d="M 6102,6850 C 6102,6922 6043,6981 5971,6981 L 4883,6981 C 4810,6981 4752,6922 4752,6850 L 4752,5767 C 4752,5694 4810,5636 4883,5636 L 5971,5636 C 6043,5636 6102,5694 6102,5767 L 6102,6850 Z"/>
         </g>
        </g>
        <g class="com.sun.star.drawing.ClosedBezierShape">
         <g id="id20">
          <rect class="BoundingBox" stroke="none" fill="none" x="6374" y="4024" width="1351" height="1346"/>
          <path fill="rgb(53,152,48)" stroke="none" d="M 7724,5237 C 7724,5310 7666,5369 7593,5369 L 6505,5369 C 6433,5369 6374,5310 6374,5237 L 6374,4155 C 6374,4083 6433,4024 6505,4024 L 7593,4024 C 7666,4024 7724,4083 7724,4155 L 7724,5237 Z"/>
         </g>
        </g>
        <g class="com.sun.star.drawing.ClosedBezierShape">
         <g id="id21">
          <rect class="BoundingBox" stroke="none" fill="none" x="6374" y="5635" width="1351" height="1346"/>
          <path fill="rgb(53,152,48)" stroke="none" d="M 7724,6849 C 7724,6921 7666,6980 7593,6980 L 6505,6980 C 6433,6980 6374,6921 6374,6849 L 6374,5766 C 6374,5693 6433,5635 6505,5635 L 7593,5635 C 7666,5635 7724,5693 7724,5766 L 7724,6849 Z"/>
         </g>
        </g>
        <g class="com.sun.star.drawing.ClosedBezierShape">
         <g id="id22">
          <rect class="BoundingBox" stroke="none" fill="none" x="6374" y="7249" width="1351" height="1348"/>
          <path fill="rgb(53,152,48)" stroke="none" d="M 7724,8465 C 7724,8537 7666,8596 7593,8596 L 6505,8596 C 6433,8596 6374,8537 6374,8465 L 6374,7381 C 6374,7309 6433,7250 6505,7250 L 7593,7250 C 7666,7250 7724,7309 7724,7381 L 7724,8465 Z"/>
         </g>
        </g>
        <g class="com.sun.star.drawing.ClosedBezierShape">
         <g id="id23">
          <rect class="BoundingBox" stroke="none" fill="none" x="3133" y="4024" width="1351" height="1347"/>
          <path fill="rgb(53,152,48)" stroke="none" d="M 4483,5238 C 4483,5311 4425,5370 4352,5370 L 3264,5370 C 3192,5370 3133,5311 3133,5238 L 3133,4156 C 3133,4084 3192,4025 3264,4025 L 4352,4025 C 4425,4025 4483,4084 4483,4156 L 4483,5238 Z"/>
         </g>
        </g>
        <g class="com.sun.star.drawing.ClosedBezierShape">
         <g id="id24">
          <rect class="BoundingBox" stroke="none" fill="none" x="14493" y="10474" width="1351" height="1347"/>
          <path fill="rgb(53,152,48)" stroke="none" d="M 15843,11689 C 15843,11761 15785,11820 15712,11820 L 14624,11820 C 14552,11820 14493,11761 14493,11689 L 14493,10606 C 14493,10533 14552,10475 14624,10475 L 15712,10475 C 15785,10475 15843,10533 15843,10606 L 15843,11689 Z"/>
         </g>
        </g>
        <g class="com.sun.star.drawing.ClosedBezierShape">
         <g id="id25">
          <rect class="BoundingBox" stroke="none" fill="none" x="11252" y="10476" width="1351" height="1346"/>
          <path fill="rgb(53,152,48)" stroke="none" d="M 12602,11690 C 12602,11762 12543,11821 12471,11821 L 11383,11821 C 11310,11821 11252,11762 11252,11690 L 11252,10607 C 11252,10534 11310,10476 11383,10476 L 12471,10476 C 12543,10476 12602,10534 12602,10607 L 12602,11690 Z"/>
         </g>
        </g>
        <g class="com.sun.star.drawing.ClosedBezierShape">
         <g id="id26">
          <rect class="BoundingBox" stroke="none" fill="none" x="12873" y="10474" width="1351" height="1347"/>
          <path fill="rgb(53,152,48)" stroke="none" d="M 14223,11689 C 14223,11761 14165,11820 14092,11820 L 13004,11820 C 12932,11820 12873,11761 12873,11689 L 12873,10606 C 12873,10533 12932,10475 13004,10475 L 14092,10475 C 14165,10475 14223,10533 14223,10606 L 14223,11689 Z"/>
         </g>
        </g>
        <g class="com.sun.star.drawing.ClosedBezierShape">
         <g id="id27">
          <rect class="BoundingBox" stroke="none" fill="none" x="12873" y="12089" width="1351" height="1347"/>
          <path fill="rgb(53,152,48)" stroke="none" d="M 14223,13304 C 14223,13376 14165,13435 14092,13435 L 13004,13435 C 12932,13435 12873,13376 12873,13304 L 12873,12220 C 12873,12148 12932,12089 13004,12089 L 14092,12089 C 14165,12089 14223,12148 14223,12220 L 14223,13304 Z"/>
         </g>
        </g>
        <g class="com.sun.star.drawing.ClosedBezierShape">
         <g id="id28">
          <rect class="BoundingBox" stroke="none" fill="none" x="9633" y="10476" width="1351" height="1346"/>
          <path fill="rgb(53,152,48)" stroke="none" d="M 10983,11690 C 10983,11762 10925,11821 10852,11821 L 9764,11821 C 9692,11821 9633,11762 9633,11690 L 9633,10607 C 9633,10534 9692,10476 9764,10476 L 10852,10476 C 10925,10476 10983,10534 10983,10607 L 10983,11690 Z"/>
         </g>
        </g>
        <g class="com.sun.star.drawing.ClosedBezierShape">
         <g id="id29">
          <rect class="BoundingBox" stroke="none" fill="none" x="4768" y="10476" width="1351" height="1346"/>
          <path fill="rgb(53,152,48)" stroke="none" d="M 6118,11690 C 6118,11762 6059,11821 5987,11821 L 4899,11821 C 4826,11821 4768,11762 4768,11690 L 4768,10607 C 4768,10534 4826,10476 4899,10476 L 5987,10476 C 6059,10476 6118,10534 6118,10607 L 6118,11690 Z"/>
         </g>
        </g>
        <g class="com.sun.star.drawing.ClosedBezierShape">
         <g id="id30">
          <rect class="BoundingBox" stroke="none" fill="none" x="6390" y="10474" width="1351" height="1347"/>
          <path fill="rgb(53,152,48)" stroke="none" d="M 7740,11689 C 7740,11761 7682,11820 7609,11820 L 6521,11820 C 6449,11820 6390,11761 6390,11689 L 6390,10606 C 6390,10533 6449,10475 6521,10475 L 7609,10475 C 7682,10475 7740,10533 7740,10606 L 7740,11689 Z"/>
         </g>
        </g>
        <g class="com.sun.star.drawing.ClosedBezierShape">
         <g id="id31">
          <rect class="BoundingBox" stroke="none" fill="none" x="3149" y="10476" width="1352" height="1346"/>
          <path fill="rgb(53,152,48)" stroke="none" d="M 4500,11690 C 4500,11762 4442,11821 4369,11821 L 3281,11821 C 3209,11821 3150,11762 3150,11690 L 3150,10607 C 3150,10534 3209,10476 3281,10476 L 4369,10476 C 4442,10476 4500,10534 4500,10607 L 4500,11690 Z"/>
         </g>
        </g>
        <g class="com.sun.star.drawing.ClosedBezierShape">
         <g id="id32">
          <rect class="BoundingBox" stroke="none" fill="none" x="3149" y="12090" width="1352" height="1347"/>
          <path fill="rgb(53,152,48)" stroke="none" d="M 4500,13305 C 4500,13377 4442,13436 4369,13436 L 3281,13436 C 3209,13436 3150,13377 3150,13305 L 3150,12221 C 3150,12149 3209,12090 3281,12090 L 4369,12090 C 4442,12090 4500,12149 4500,12221 L 4500,13305 Z"/>
         </g>
        </g>
        <g class="com.sun.star.drawing.ClosedBezierShape">
         <g id="id33">
          <rect class="BoundingBox" stroke="none" fill="none" x="1499" y="2410" width="1353" height="1348"/>
          <path fill="rgb(53,152,48)" stroke="none" d="M 2851,3626 C 2851,3698 2792,3757 2720,3757 L 1632,3757 C 1559,3757 1500,3698 1500,3626 L 1500,2542 C 1500,2470 1559,2411 1632,2411 L 2720,2411 C 2792,2411 2851,2470 2851,2542 L 2851,3626 Z"/>
         </g>
        </g>
        <g class="com.sun.star.drawing.ClosedBezierShape">
         <g id="id34">
          <rect class="BoundingBox" stroke="none" fill="none" x="1517" y="4026" width="1351" height="1346"/>
          <path fill="rgb(53,152,48)" stroke="none" d="M 2867,5239 C 2867,5312 2809,5371 2736,5371 L 1648,5371 C 1576,5371 1517,5312 1517,5239 L 1517,4157 C 1517,4085 1576,4026 1648,4026 L 2736,4026 C 2809,4026 2867,4085 2867,4157 L 2867,5239 Z"/>
         </g>
        </g>
        <g class="com.sun.star.drawing.ClosedBezierShape">
         <g id="id35">
          <rect class="BoundingBox" stroke="none" fill="none" x="1517" y="5637" width="1351" height="1346"/>
          <path fill="rgb(53,152,48)" stroke="none" d="M 2867,6851 C 2867,6923 2809,6982 2736,6982 L 1648,6982 C 1576,6982 1517,6923 1517,6851 L 1517,5768 C 1517,5695 1576,5637 1648,5637 L 2736,5637 C 2809,5637 2867,5695 2867,5768 L 2867,6851 Z"/>
         </g>
        </g>
        <g class="com.sun.star.drawing.ClosedBezierShape">
         <g id="id36">
          <rect class="BoundingBox" stroke="none" fill="none" x="1517" y="7251" width="1351" height="1348"/>
          <path fill="rgb(53,152,48)" stroke="none" d="M 2867,8467 C 2867,8539 2809,8598 2736,8598 L 1648,8598 C 1576,8598 1517,8539 1517,8467 L 1517,7383 C 1517,7311 1576,7252 1648,7252 L 2736,7252 C 2809,7252 2867,7311 2867,7383 L 2867,8467 Z"/>
         </g>
        </g>
        <g class="com.sun.star.drawing.ClosedBezierShape">
         <g id="id37">
          <rect class="BoundingBox" stroke="none" fill="none" x="11253" y="13700" width="1351" height="1347"/>
          <path fill="rgb(53,152,48)" stroke="none" d="M 12603,14915 C 12603,14987 12544,15046 12472,15046 L 11384,15046 C 11311,15046 11253,14987 11253,14915 L 11253,13831 C 11253,13759 11311,13700 11384,13700 L 12472,13700 C 12544,13700 12603,13759 12603,13831 L 12603,14915 Z"/>
         </g>
        </g>
        <g class="com.sun.star.drawing.ClosedBezierShape">
         <g id="id38">
          <rect class="BoundingBox" stroke="none" fill="none" x="3150" y="13702" width="1352" height="1347"/>
          <path fill="rgb(53,152,48)" stroke="none" d="M 4501,14917 C 4501,14989 4443,15048 4370,15048 L 3282,15048 C 3210,15048 3151,14989 3151,14917 L 3151,13833 C 3151,13761 3210,13702 3282,13702 L 4370,13702 C 4443,13702 4501,13761 4501,13833 L 4501,14917 Z"/>
         </g>
        </g>
        <g class="com.sun.star.drawing.ClosedBezierShape">
         <g id="id39">
          <rect class="BoundingBox" stroke="none" fill="none" x="14511" y="15312" width="1351" height="1347"/>
          <path fill="rgb(53,152,48)" stroke="none" d="M 15861,16526 C 15861,16599 15803,16658 15730,16658 L 14642,16658 C 14570,16658 14511,16599 14511,16526 L 14511,15444 C 14511,15372 14570,15313 14642,15313 L 15730,15313 C 15803,15313 15861,15372 15861,15444 L 15861,16526 Z"/>
         </g>
        </g>
        <g class="com.sun.star.drawing.ClosedBezierShape">
         <g id="id40">
          <rect class="BoundingBox" stroke="none" fill="none" x="11269" y="15312" width="1351" height="1347"/>
          <path fill="rgb(53,152,48)" stroke="none" d="M 12619,16526 C 12619,16599 12560,16658 12488,16658 L 11400,16658 C 11327,16658 11269,16599 11269,16526 L 11269,15444 C 11269,15372 11327,15313 11400,15313 L 12488,15313 C 12560,15313 12619,15372 12619,15444 L 12619,16526 Z"/>
         </g>
        </g>
        <g class="com.sun.star.drawing.ClosedBezierShape">
         <g id="id41">
          <rect class="BoundingBox" stroke="none" fill="none" x="12890" y="15314" width="1352" height="1346"/>
          <path fill="rgb(53,152,48)" stroke="none" d="M 14241,16527 C 14241,16600 14183,16659 14110,16659 L 13022,16659 C 12950,16659 12891,16600 12891,16527 L 12891,15445 C 12891,15373 12950,15314 13022,15314 L 14110,15314 C 14183,15314 14241,15373 14241,15445 L 14241,16527 Z"/>
         </g>
        </g>
        <g class="com.sun.star.drawing.ClosedBezierShape">
         <g id="id42">
          <rect class="BoundingBox" stroke="none" fill="none" x="9650" y="15315" width="1351" height="1346"/>
          <path fill="rgb(53,152,48)" stroke="none" d="M 11000,16528 C 11000,16601 10942,16660 10869,16660 L 9781,16660 C 9709,16660 9650,16601 9650,16528 L 9650,15446 C 9650,15374 9709,15315 9781,15315 L 10869,15315 C 10942,15315 11000,15374 11000,15446 L 11000,16528 Z"/>
         </g>
        </g>
        <g class="com.sun.star.drawing.ClosedBezierShape">
         <g id="id43">
          <rect class="BoundingBox" stroke="none" fill="none" x="4786" y="15312" width="1351" height="1347"/>
          <path fill="rgb(53,152,48)" stroke="none" d="M 6136,16526 C 6136,16599 6077,16658 6005,16658 L 4917,16658 C 4844,16658 4786,16599 4786,16526 L 4786,15444 C 4786,15372 4844,15313 4917,15313 L 6005,15313 C 6077,15313 6136,15372 6136,15444 L 6136,16526 Z"/>
         </g>
        </g>
        <g class="com.sun.star.drawing.ClosedBezierShape">
         <g id="id44">
          <rect class="BoundingBox" stroke="none" fill="none" x="6407" y="15314" width="1352" height="1346"/>
          <path fill="rgb(53,152,48)" stroke="none" d="M 7758,16527 C 7758,16600 7700,16659 7627,16659 L 6539,16659 C 6467,16659 6408,16600 6408,16527 L 6408,15445 C 6408,15373 6467,15314 6539,15314 L 7627,15314 C 7700,15314 7758,15373 7758,15445 L 7758,16527 Z"/>
         </g>
        </g>
        <g class="com.sun.star.drawing.ClosedBezierShape">
         <g id="id45">
          <rect class="BoundingBox" stroke="none" fill="none" x="3167" y="15315" width="1351" height="1346"/>
          <path fill="rgb(53,152,48)" stroke="none" d="M 4517,16528 C 4517,16601 4459,16660 4386,16660 L 3298,16660 C 3226,16660 3167,16601 3167,16528 L 3167,15446 C 3167,15374 3226,15315 3298,15315 L 4386,15315 C 4459,15315 4517,15374 4517,15446 L 4517,16528 Z"/>
         </g>
        </g>
       </g>
      </g>
     </g>
    </g>
   </g>
  </g>
 </g>
</svg>